<?xml version="1.0" encoding="UTF-8"?>
<svg version="1.1" xmlns="http://www.w3.org/2000/svg" width="90" height="50">
<path d="M0 0 C4.37464796 -0.14564235 8.7486696 -0.23419143 13.125 -0.3125 C14.3625 -0.35439453 15.6 -0.39628906 16.875 -0.43945312 C27.15525139 -0.57762855 27.15525139 -0.57762855 30.8046875 2.296875 C33.5216136 5.64227155 34 7.71465494 34 12 C33.0625 14.4375 33.0625 14.4375 32 16 C33.32 17.65 34.64 19.3 36 21 C39.3 14.07 42.6 7.14 46 0 C48.64 0 51.28 0 54 0 C55.5094588 3.09965403 57.00590667 6.20541403 58.5 9.3125 C58.92925781 10.19357422 59.35851563 11.07464844 59.80078125 11.98242188 C60.20683594 12.82998047 60.61289062 13.67753906 61.03125 14.55078125 C61.59682617 15.72120972 61.59682617 15.72120972 62.17382812 16.9152832 C63 19 63 19 63 22 C63.66 22 64.32 22 65 22 C64.59007813 20.91460938 64.18015625 19.82921875 63.7578125 18.7109375 C63.21348243 17.26564731 62.66921491 15.82033356 62.125 14.375 C61.85558594 13.66214844 61.58617187 12.94929687 61.30859375 12.21484375 C59.7865816 8.16851878 58.33627828 4.11262344 57 0 C60.96 0 64.92 0 69 0 C70.32 2.64 71.64 5.28 73 8 C73.598125 6.68 74.19625 5.36 74.8125 4 C76.15625 1.78125 76.15625 1.78125 78 0 C81.75066888 -0.7164199 85.22667727 -0.47579551 89 0 C87.69612507 3.56520929 86.14229737 6.48551317 83.953125 9.58203125 C83.355 10.43216797 82.756875 11.28230469 82.140625 12.15820312 C81.51671875 13.03412109 80.8928125 13.91003906 80.25 14.8125 C79.6415625 15.67681641 79.033125 16.54113281 78.40625 17.43164062 C77.19751597 19.14272245 75.98122874 20.84849604 74.75708008 22.54858398 C73.60997065 24.14899051 72.48119638 25.76274492 71.3737793 27.39086914 C70.6144812 28.47742798 70.6144812 28.47742798 69.83984375 29.5859375 C69.18423462 30.54765869 69.18423462 30.54765869 68.51538086 31.52880859 C66.52047794 33.46553889 65.04488926 33.60220526 62.3125 33.8125 C59.27900588 33.5035799 58.36599232 33.39213462 56.25 31.125 C55.8375 30.09375 55.425 29.0625 55 28 C54.1135747 26.22443861 53.21700669 24.45391889 52.3125 22.6875 C51.53971164 21.125966 50.76822734 19.56378292 50 18 C48.49440461 19.96382007 47.10868317 21.78263366 46 24 C46.763125 24.226875 47.52625 24.45375 48.3125 24.6875 C51.5753027 26.28096179 52.46260709 27.76338336 54 31 C54 31.66 54 32.32 54 33 C39.15 33 24.3 33 9 33 C8.67 23.76 8.34 14.52 8 5 C7.01 5 6.02 5 5 5 C4.39091832 13.17909682 3.88241952 21.3602794 3.75 29.5625 C3.72421875 30.82191406 3.6984375 32.08132812 3.671875 33.37890625 C4.04894257 37.54011617 4.96603006 40.35211914 7 44 C11.50729874 47.71055401 15.68283654 47.47749386 21.30078125 47.375 C26.68802354 46.8288804 31.62644839 45.38504179 36.78515625 43.77734375 C39.80444044 43.04728597 41.16955389 42.87770341 44 44 C41.60539412 44.81627446 39.20943474 45.62811645 36.8125 46.4375 C36.13896484 46.66759766 35.46542969 46.89769531 34.77148438 47.13476562 C28.52839356 49.23609863 23.15525205 50.18635469 16.5625 50.3125 C14.64630859 50.36857422 14.64630859 50.36857422 12.69140625 50.42578125 C8.39846102 49.93061614 6.33090387 48.69527281 3 46 C-1.09244953 40.35524202 -1.16324706 35.16999949 -1.125 28.375 C-1.12306641 27.54701904 -1.12113281 26.71903809 -1.11914062 25.8659668 C-1.0602918 17.22581461 -0.57665646 8.61895463 0 0 Z M18 8 C18 9.32 18 10.64 18 12 C19.98 12 21.96 12 24 12 C23.67 10.68 23.34 9.36 23 8 C21.35 8 19.7 8 18 8 Z M18 21 C18 22.32 18 23.64 18 25 C20.31 25 22.62 25 25 25 C25 23.68 25 22.36 25 21 C22.69 21 20.38 21 18 21 Z " fill="#F38532" transform="translate(1,0)"/>
<path d="M0 0 C2.64 0 5.28 0 8 0 C9.5094588 3.09965403 11.00590667 6.20541403 12.5 9.3125 C12.92925781 10.19357422 13.35851562 11.07464844 13.80078125 11.98242188 C14.40986328 13.25375977 14.40986328 13.25375977 15.03125 14.55078125 C15.40830078 15.33106689 15.78535156 16.11135254 16.17382812 16.9152832 C17 19 17 19 17 22 C17.66 22 18.32 22 19 22 C18.59007813 20.91460938 18.18015625 19.82921875 17.7578125 18.7109375 C17.21348243 17.26564731 16.66921491 15.82033356 16.125 14.375 C15.85558594 13.66214844 15.58617188 12.94929687 15.30859375 12.21484375 C13.7865816 8.16851878 12.33627828 4.11262344 11 0 C14.96 0 18.92 0 23 0 C24.32 2.64 25.64 5.28 27 8 C27.598125 6.68 28.19625 5.36 28.8125 4 C30.15625 1.78125 30.15625 1.78125 32 0 C35.75066888 -0.7164199 39.22667727 -0.47579551 43 0 C41.69612507 3.56520929 40.14229737 6.48551317 37.953125 9.58203125 C37.355 10.43216797 36.756875 11.28230469 36.140625 12.15820312 C35.51671875 13.03412109 34.8928125 13.91003906 34.25 14.8125 C33.33734375 16.10897461 33.33734375 16.10897461 32.40625 17.43164062 C31.19751597 19.14272245 29.98122874 20.84849604 28.75708008 22.54858398 C27.60997065 24.14899051 26.48119638 25.76274492 25.3737793 27.39086914 C24.86758057 28.1152417 24.36138184 28.83961426 23.83984375 29.5859375 C23.18423462 30.54765869 23.18423462 30.54765869 22.51538086 31.52880859 C20.52047794 33.46553889 19.04488926 33.60220526 16.3125 33.8125 C13.27900588 33.5035799 12.36599232 33.39213462 10.25 31.125 C9.8375 30.09375 9.425 29.0625 9 28 C8.1135747 26.22443861 7.21700669 24.45391889 6.3125 22.6875 C5.53971164 21.125966 4.76822734 19.56378292 4 18 C3.53980469 18.62390625 3.07960938 19.2478125 2.60546875 19.890625 C1.1778897 21.76627631 -0.29671221 23.37782116 -2 25 C-3.32 24.34 -4.64 23.68 -6 23 C-6 21.02 -6 19.04 -6 17 C-4.33333333 17 -2.66666667 17 -1 17 C-1 16.01 -1 15.02 -1 14 C-1.66 14 -2.32 14 -3 14 C-3 13.34 -3 12.68 -3 12 C-2.01 11.34 -1.02 10.68 0 10 C-0.66 9.34 -1.32 8.68 -2 8 C-1.69347955 5.0574037 -1.32728846 2.65457692 0 0 Z " fill="#F38735" transform="translate(47,0)"/>
<path d="M0 0 C2.64 0 5.28 0 8 0 C8 1.65 8 3.3 8 5 C7.01 5 6.02 5 5 5 C4.39091832 13.17909682 3.88241952 21.3602794 3.75 29.5625 C3.72421875 30.82191406 3.6984375 32.08132812 3.671875 33.37890625 C4.04894257 37.54011617 4.96603006 40.35211914 7 44 C11.50729874 47.71055401 15.68283654 47.47749386 21.30078125 47.375 C26.68802354 46.8288804 31.62644839 45.38504179 36.78515625 43.77734375 C39.80444044 43.04728597 41.16955389 42.87770341 44 44 C41.60539412 44.81627446 39.20943474 45.62811645 36.8125 46.4375 C36.13896484 46.66759766 35.46542969 46.89769531 34.77148438 47.13476562 C28.52839356 49.23609863 23.15525205 50.18635469 16.5625 50.3125 C14.64630859 50.36857422 14.64630859 50.36857422 12.69140625 50.42578125 C8.39846102 49.93061614 6.33090387 48.69527281 3 46 C-1.09244953 40.35524202 -1.16324706 35.16999949 -1.125 28.375 C-1.12306641 27.54701904 -1.12113281 26.71903809 -1.11914062 25.8659668 C-1.0602918 17.22581461 -0.57665646 8.61895463 0 0 Z " fill="#7234C3" transform="translate(1,0)"/>
<path d="M0 0 C1.32 0.33 2.64 0.66 4 1 C3.67 5.29 3.34 9.58 3 14 C3.99 13.34 4.98 12.68 6 12 C6.99 12 7.98 12 9 12 C9 10.35 9 8.7 9 7 C11.31 7 13.62 7 16 7 C16.33 8.65 16.66 10.3 17 12 C16.34 11.01 15.68 10.02 15 9 C12.43717258 8.27034634 12.43717258 8.27034634 10 8 C10 9.32 10 10.64 10 12 C11.32 12.33 12.64 12.66 14 13 C11.36 13.33 8.72 13.66 6 14 C6 14.66 6 15.32 6 16 C8.28388314 17.14194157 9.8383666 17.16502131 12.375 17.3125 C15.79881104 17.643303 16.78920156 17.83033296 19.5625 20.0625 C20.036875 20.701875 20.51125 21.34125 21 22 C19.97678144 25.06965569 19.55488078 26.13191513 17 28 C14.15234375 28.328125 14.15234375 28.328125 10.9375 28.25 C9.87402344 28.23453125 8.81054688 28.2190625 7.71484375 28.203125 C5 28 5 28 3 27 C2.34 27.99 1.68 28.98 1 30 C0.67 20.1 0.34 10.2 0 0 Z M10 21 C10 22.32 10 23.64 10 25 C12.31 25 14.62 25 17 25 C17 23.68 17 22.36 17 21 C14.69 21 12.38 21 10 21 Z " fill="#EE8D46" transform="translate(9,0)"/>
<path d="M0 0 C0.226875 0.556875 0.45375 1.11375 0.6875 1.6875 C2.68085165 5.19959577 5.36119749 8.18059875 9 10 C17.88803973 10.84318884 25.3928998 9.3927689 33.78515625 6.77734375 C36.80444044 6.04728597 38.16955389 5.87770341 41 7 C38.60539412 7.81627446 36.20943474 8.62811645 33.8125 9.4375 C33.13896484 9.66759766 32.46542969 9.89769531 31.77148438 10.13476562 C25.52839356 12.23609863 20.15525205 13.18635469 13.5625 13.3125 C11.64630859 13.36857422 11.64630859 13.36857422 9.69140625 13.42578125 C5.40606203 12.93149287 3.32105896 11.69556804 0 9 C-1.375 6.75 -1.375 6.75 -2 5 C-1.34 5 -0.68 5 0 5 C0 3.35 0 1.7 0 0 Z " fill="#4310B2" transform="translate(4,37)"/>
<path d="M0 0 C0.99 0.33 1.98 0.66 3 1 C3 3 3 3 1.5 4.625 C1.005 5.07875 0.51 5.5325 0 6 C0.99 6.66 1.98 7.32 3 8 C-3.6 8 -10.2 8 -17 8 C-16.67 6.02 -16.34 4.04 -16 2 C-14.68 1.67 -13.36 1.34 -12 1 C-12 1.33 -12 1.66 -12 2 C-8.37 2.33 -4.74 2.66 -1 3 C-0.67 2.01 -0.34 1.02 0 0 Z " fill="#E3813C" transform="translate(27,25)"/>
<path d="M0 0 C0.66 0.33 1.32 0.66 2 1 C1.34 2.65 0.68 4.3 0 6 C1.98 5.67 3.96 5.34 6 5 C6 4.34 6 3.68 6 3 C6.99 3 7.98 3 9 3 C9.33 2.01 9.66 1.02 10 0 C10.33 0.99 10.66 1.98 11 3 C10.01196289 4.90112305 10.01196289 4.90112305 8.47265625 7.01171875 C7.92802734 7.76904297 7.38339844 8.52636719 6.82226562 9.30664062 C6.24154297 10.09232422 5.66082031 10.87800781 5.0625 11.6875 C4.48564453 12.48478516 3.90878906 13.28207031 3.31445312 14.10351562 C1.88536812 16.07588914 0.44704375 18.04078433 -1 20 C-1.66 19.67 -2.32 19.34 -3 19 C-2.34 18.05125 -1.68 17.1025 -1 16.125 C1.17968457 13.33761045 1.17968457 13.33761045 1 11 C-0.65 11 -2.3 11 -4 11 C-3.71890887 9.35232753 -3.42481474 7.70686855 -3.125 6.0625 C-2.96257812 5.14597656 -2.80015625 4.22945312 -2.6328125 3.28515625 C-2.42398438 2.53105469 -2.21515625 1.77695313 -2 1 C-1.34 0.67 -0.68 0.34 0 0 Z " fill="#F4842F" transform="translate(70,12)"/>
<path d="M0 0 C12.87312261 -0.85948148 12.87312261 -0.85948148 16.75 2.0625 C19.39733259 5.51873977 20 7.66787017 20 12 C19.34 12.66 18.68 13.32 18 14 C18 13.34 18 12.68 18 12 C15.03 11.505 15.03 11.505 12 11 C12.33 9.35 12.66 7.7 13 6 C13.66 6 14.32 6 15 6 C14.505 5.54625 14.01 5.0925 13.5 4.625 C12 3 12 3 12 1 C8.37 1.33 4.74 1.66 1 2 C0.67 1.34 0.34 0.68 0 0 Z " fill="#F08636" transform="translate(15,0)"/>
<path d="M0 0 C3.96 0 7.92 0 12 0 C13.5625 2.8125 13.5625 2.8125 15 6 C14.67 6.99 14.34 7.98 14 9 C12.35 9 10.7 9 9 9 C9.66 7.02 10.32 5.04 11 3 C9.02 3.66 7.04 4.32 5 5 C5 6.98 5 8.96 5 11 C1.893533 7.893533 1.30910218 4.16532512 0 0 Z " fill="#EE9447" transform="translate(58,0)"/>
<path d="M0 0 C1.32 0.33 2.64 0.66 4 1 C2.87548273 3.9719385 1.77706209 6.33440687 0 9 C-1.9453125 9.29296875 -1.9453125 9.29296875 -4.125 9.1875 C-6.043125 9.0946875 -6.043125 9.0946875 -8 9 C-8.33 8.01 -8.66 7.02 -9 6 C-8.01 6 -7.02 6 -6 6 C-6 4.68 -6 3.36 -6 2 C-4.02 2 -2.04 2 0 2 C0 1.34 0 0.68 0 0 Z " fill="#F78532" transform="translate(68,22)"/>
<path d="M0 0 C0.495 0.474375 0.99 0.94875 1.5 1.4375 C4.99468651 3.62167907 7.90966936 3.65913911 12 4 C12 4.33 12 4.66 12 5 C11.443125 5.02578125 10.88625 5.0515625 10.3125 5.078125 C5.01683618 5.47172163 1.2165321 6.57011251 -3.37109375 9.2578125 C-3.90863281 9.50273437 -4.44617187 9.74765625 -5 10 C-5.66 9.67 -6.32 9.34 -7 9 C-6.01 6.36 -5.02 3.72 -4 1 C-3.01 1.66 -2.02 2.32 -1 3 C-0.67 2.01 -0.34 1.02 0 0 Z " fill="#F88D3D" transform="translate(39,21)"/>
<path d="M0 0 C2.31 0 4.62 0 7 0 C7 1.65 7 3.3 7 5 C6.01 5 5.02 5 4 5 C4 7.31 4 9.62 4 12 C3.01 12 2.02 12 1 12 C0.67 8.04 0.34 4.08 0 0 Z " fill="#8234DE" transform="translate(2,0)"/>
<path d="M0 0 C0.99 0 1.98 0 3 0 C3.08004482 3.5219721 3.04005702 6.61981469 2 10 C2.33 10 2.66 10 3 10 C3 13.3 3 16.6 3 20 C2.01 19.67 1.02 19.34 0 19 C0 12.73 0 6.46 0 0 Z " fill="#7E1DEE" transform="translate(0,18)"/>
<path d="M0 0 C0 0.66 0 1.32 0 2 C-7.59 2 -15.18 2 -23 2 C-22.67 1.34 -22.34 0.68 -22 0 C-18.89635771 -0.19696449 -15.79207808 -0.38093262 -12.6875 -0.5625 C-11.36588867 -0.64661133 -11.36588867 -0.64661133 -10.01757812 -0.73242188 C-8.74624023 -0.80493164 -8.74624023 -0.80493164 -7.44921875 -0.87890625 C-6.27879028 -0.94960327 -6.27879028 -0.94960327 -5.0847168 -1.02172852 C-3 -1 -3 -1 0 0 Z " fill="#DA8448" transform="translate(55,31)"/>
<path d="M0 0 C0.33 0 0.66 0 1 0 C1 9.24 1 18.48 1 28 C0.01 27.67 -0.98 27.34 -2 27 C-1.835 26.505 -1.67 26.01 -1.5 25.5 C-0.52015233 20.60076163 -0.65351041 15.8088914 -2 11 C-1.67 10.67 -1.34 10.34 -1 10 C-0.76712992 8.31816052 -0.58735834 6.6287584 -0.4375 4.9375 C-0.35371094 4.01839844 -0.26992188 3.09929688 -0.18359375 2.15234375 C-0.12300781 1.44207031 -0.06242188 0.73179688 0 0 Z " fill="#6E21C2" transform="translate(3,14)"/>
<path d="M0 0 C3.63 0 7.26 0 11 0 C10.34 1.65 9.68 3.3 9 5 C8.29875 4.62875 7.5975 4.2575 6.875 3.875 C3.23556349 2.76734541 1.44299589 3.55874591 -2 5 C-1.34 3.35 -0.68 1.7 0 0 Z " fill="#ED974D" transform="translate(79,0)"/>
<path d="M0 0 C5.94 0.99 5.94 0.99 12 2 C11 4 11 4 10 5 C8.14712498 5.07226502 6.29166122 5.0838122 4.4375 5.0625 C3.42558594 5.05347656 2.41367188 5.04445313 1.37109375 5.03515625 C0.58863281 5.02355469 -0.19382812 5.01195312 -1 5 C-0.67 3.35 -0.34 1.7 0 0 Z " fill="#F78535" transform="translate(12,26)"/>
<path d="M0 0 C2.64 0 5.28 0 8 0 C8.67119549 1.4562545 9.33681807 2.91507867 10 4.375 C10.556875 5.59316406 10.556875 5.59316406 11.125 6.8359375 C12 9 12 9 12 11 C11.34 11 10.68 11 10 11 C9.5978125 9.824375 9.5978125 9.824375 9.1875 8.625 C8.15185568 5.71885077 8.15185568 5.71885077 5 4 C5.33 3.34 5.66 2.68 6 2 C4.35 2 2.7 2 1 2 C0.67 3.32 0.34 4.64 0 6 C-0.66 6 -1.32 6 -2 6 C-1.34 4.02 -0.68 2.04 0 0 Z " fill="#E9944A" transform="translate(47,0)"/>
<path d="M0 0 C0.33 0.99 0.66 1.98 1 3 C0.01196289 4.90112305 0.01196289 4.90112305 -1.52734375 7.01171875 C-2.07197266 7.76904297 -2.61660156 8.52636719 -3.17773438 9.30664062 C-3.75845703 10.09232422 -4.33917969 10.87800781 -4.9375 11.6875 C-5.51435547 12.48478516 -6.09121094 13.28207031 -6.68554688 14.10351562 C-8.11463188 16.07588914 -9.55295625 18.04078433 -11 20 C-11.66 19.67 -12.32 19.34 -13 19 C-12.57847656 18.45730469 -12.15695313 17.91460938 -11.72265625 17.35546875 C-11.17480469 16.64003906 -10.62695312 15.92460937 -10.0625 15.1875 C-9.51722656 14.47980469 -8.97195312 13.77210937 -8.41015625 13.04296875 C-6.83143752 10.95874948 -6.83143752 10.95874948 -6 8 C-5.34 8 -4.68 8 -4 8 C-4 6.35 -4 4.7 -4 3 C-3.01 3 -2.02 3 -1 3 C-0.67 2.01 -0.34 1.02 0 0 Z " fill="#DB7A30" transform="translate(80,12)"/>
<path d="M0 0 C1.32 0 2.64 0 4 0 C4 0.66 4 1.32 4 2 C3.01 2 2.02 2 1 2 C1.33 2.66 1.66 3.32 2 4 C3.155 4.165 4.31 4.33 5.5 4.5 C6.655 4.665 7.81 4.83 9 5 C9.33 5.66 9.66 6.32 10 7 C8.52093108 7.02689216 7.04172517 7.04634621 5.5625 7.0625 C4.32693359 7.07990234 4.32693359 7.07990234 3.06640625 7.09765625 C1 7 1 7 0 6 C-0.04080783 4.00041636 -0.04254356 1.99954746 0 0 Z " fill="#E1843D" transform="translate(58,26)"/>
<path d="M0 0 C0.99 0.66 1.98 1.32 3 2 C2.67 2.99 2.34 3.98 2 5 C-1.5625 6.1875 -1.5625 6.1875 -5 7 C-5 5.68 -5 4.36 -5 3 C-2.5 1.25 -2.5 1.25 0 0 Z " fill="#F68532" transform="translate(82,2)"/>
<path d="M0 0 C2.08218362 -0.10832169 4.16599129 -0.18573541 6.25 -0.25 C7.99023438 -0.31960937 7.99023438 -0.31960937 9.765625 -0.390625 C13.57666013 0.06964494 14.65511755 1.05148444 17 4 C15.35 3.67 13.7 3.34 12 3 C12 2.34 12 1.68 12 1 C8.37 1.33 4.74 1.66 1 2 C0.67 1.34 0.34 0.68 0 0 Z " fill="#F39951" transform="translate(15,0)"/>
<path d="M0 0 C0.33 0 0.66 0 1 0 C1 3.3 1 6.6 1 10 C0.01 9.67 -0.98 9.34 -2 9 C-1.125 1.125 -1.125 1.125 0 0 Z " fill="#7518E5" transform="translate(2,28)"/>
<path d="M0 0 C1.64826111 2.96687001 2.44271087 5.65626525 3 9 C1.0625 8.6875 1.0625 8.6875 -1 8 C-1.33 7.01 -1.66 6.02 -2 5 C-1.34 5 -0.68 5 0 5 C0 3.35 0 1.7 0 0 Z " fill="#5E17BA" transform="translate(4,37)"/>
<path d="M0 0 C0.33 0 0.66 0 1 0 C1.08107583 1.93681161 1.13922475 3.8745934 1.1875 5.8125 C1.23970703 7.43091797 1.23970703 7.43091797 1.29296875 9.08203125 C1 12 1 12 -0.51171875 13.88671875 C-1.00285156 14.25410156 -1.49398438 14.62148438 -2 15 C-1.855625 14.38125 -1.71125 13.7625 -1.5625 13.125 C-0.77943337 8.77462983 -0.40153341 4.39978093 0 0 Z " fill="#7A26D3" transform="translate(3,14)"/>
<path d="M0 0 C1.32 1.65 2.64 3.3 4 5 C2.02 5.33 0.04 5.66 -2 6 C-1.34 4.02 -0.68 2.04 0 0 Z " fill="#F18D40" transform="translate(44,6)"/>
<path d="M0 0 C3 1 3 1 3 1 Z " fill="#070129" transform="translate(45,42)"/>
</svg>
